<svg width="200" height="200" viewBox="0 0 200 200" fill="none" xmlns="http://www.w3.org/2000/svg">
<path d="M56.2785 153.682L64.906 165.99C66.2591 167.92 66.2261 170.499 64.8242 172.394V172.394C63.3065 174.445 60.5737 175.178 58.2337 174.16V174.16C56.072 173.22 54.7538 171.003 54.9605 168.654L56.2785 153.682Z" fill="#0FA3B1"/>
<path d="M110.279 153.682L118.906 165.99C120.259 167.92 120.226 170.499 118.824 172.394V172.394C117.306 174.445 114.574 175.178 112.234 174.16V174.16C110.072 173.22 108.754 171.003 108.961 168.654L110.279 153.682Z" fill="#0FA3B1"/>
<path d="M164.279 153.682L172.906 165.99C174.259 167.92 174.226 170.499 172.824 172.394V172.394C171.306 174.445 168.574 175.178 166.234 174.16V174.16C164.072 173.22 162.754 171.003 162.961 168.654L164.279 153.682Z" fill="#0FA3B1"/>
</svg>
