<svg width="200" height="200" viewBox="0 0 200 200" fill="none" xmlns="http://www.w3.org/2000/svg">
<path d="M29.2785 136.682L37.906 148.99C39.2591 150.92 39.2261 153.499 37.8242 155.394V155.394C36.3065 157.445 33.5737 158.178 31.2337 157.16V157.16C29.072 156.22 27.7538 154.003 27.9605 151.654L29.2785 136.682Z" fill="#0FA3B1"/>
<path d="M83.2785 136.682L91.906 148.99C93.2591 150.92 93.2261 153.499 91.8242 155.394V155.394C90.3065 157.445 87.5737 158.178 85.2337 157.16V157.16C83.072 156.22 81.7538 154.003 81.9605 151.654L83.2785 136.682Z" fill="#0FA3B1"/>
<path d="M137.279 136.682L145.906 148.99C147.259 150.92 147.226 153.499 145.824 155.394V155.394C144.306 157.445 141.574 158.178 139.234 157.16V157.16C137.072 156.22 135.754 154.003 135.961 151.654L137.279 136.682Z" fill="#0FA3B1"/>
</svg>
