<svg width="200" height="200" viewBox="0 0 200 200" fill="none" xmlns="http://www.w3.org/2000/svg">
<path d="M55.2785 123.682L63.906 135.99C65.2591 137.92 65.2261 140.499 63.8242 142.394V142.394C62.3065 144.445 59.5737 145.178 57.2337 144.16V144.16C55.072 143.22 53.7538 141.003 53.9605 138.654L55.2785 123.682Z" fill="#0FA3B1"/>
<path d="M109.279 123.682L117.906 135.99C119.259 137.92 119.226 140.499 117.824 142.394V142.394C116.306 144.445 113.574 145.178 111.234 144.16V144.16C109.072 143.22 107.754 141.003 107.961 138.654L109.279 123.682Z" fill="#0FA3B1"/>
<path d="M163.279 123.682L171.906 135.99C173.259 137.92 173.226 140.499 171.824 142.394V142.394C170.306 144.445 167.574 145.178 165.234 144.16V144.16C163.072 143.22 161.754 141.003 161.961 138.654L163.279 123.682Z" fill="#0FA3B1"/>
</svg>
