<svg width="200" height="200" viewBox="0 0 200 200" fill="none" xmlns="http://www.w3.org/2000/svg">
<path d="M29.2785 108.682L37.906 120.99C39.2591 122.92 39.2261 125.499 37.8242 127.394V127.394C36.3065 129.445 33.5737 130.178 31.2337 129.16V129.16C29.072 128.22 27.7538 126.003 27.9605 123.654L29.2785 108.682Z" fill="#0FA3B1"/>
<path d="M83.2785 108.682L91.906 120.99C93.2591 122.92 93.2261 125.499 91.8242 127.394V127.394C90.3065 129.445 87.5737 130.178 85.2337 129.16V129.16C83.072 128.22 81.7538 126.003 81.9605 123.654L83.2785 108.682Z" fill="#0FA3B1"/>
<path d="M137.279 108.682L145.906 120.99C147.259 122.92 147.226 125.499 145.824 127.394V127.394C144.306 129.445 141.574 130.178 139.234 129.16V129.16C137.072 128.22 135.754 126.003 135.961 123.654L137.279 108.682Z" fill="#0FA3B1"/>
</svg>
